<?xml version="1.0" encoding="UTF-8"?>
<svg xmlns="http://www.w3.org/2000/svg" width="258.64mm" height="94.36mm" viewBox="0 0 733.16 267.46">
  <defs>
    <style>
      .cls-1 {
        fill: #161b22;
      }

      .cls-2 {
        fill: none;
        stroke: #58a6ff;
        stroke-miterlimit: 10;
        stroke-width: .28px;
      }
    </style>
  </defs>
  <g id="Shape">
    <path class="cls-1" d="M.69,160.19l27.77-4.9V14.61c0-1.57,1.27-2.83,2.83-2.83h125.46V.84c0-.46,.38-.84,.84-.84h50.76c.46,0,.84,.38,.84,.84V11.78h135.72c1.57,0,2.83,1.27,2.83,2.83V215.66l15.12,8.73c.4,.23,.54,.74,.31,1.14l-23.97,41.51c-.23,.4-.74,.54-1.14,.31-2.77-1.6-13.03-7.52-21.72-12.54-11.22-6.48-22.44-12.96-47.42-19.65s-37.59-6.69-50.19-6.69c-10.77,0-21.38,0-24.37,0-.46,0-.84-.38-.84-.84v-3.42H31.3c-1.57,0-2.83-1.27-2.83-2.83v-15.72l-19.16,3.38c-.46,.08-.89-.22-.97-.68L.01,161.16c-.08-.46,.22-.89,.68-.97Z"/>
    <path class="cls-1" d="M732.46,160.19l-27.77-4.9V14.61c0-1.57-1.27-2.83-2.83-2.83h-125.46V.84c0-.46-.38-.84-.84-.84h-50.76c-.46,0-.84,.38-.84,.84V11.78h-135.72c-1.57,0-2.83,1.27-2.83,2.83V215.66l-15.12,8.73c-.4,.23-.54,.74-.31,1.14l23.97,41.51c.23,.4,.74,.54,1.14,.31,2.77-1.6,13.03-7.52,21.72-12.54,11.22-6.48,22.44-12.96,47.42-19.65s37.59-6.69,50.19-6.69c10.77,0,21.38,0,24.37,0,.46,0,.84-.38,.84-.84v-3.42h162.23c1.57,0,2.83-1.27,2.83-2.83v-15.72l19.16,3.38c.46,.08,.89-.22,.97-.68l8.32-47.2c.08-.46-.22-.89-.68-.97Z"/>
  </g>
  <g id="Keys_Kopie" data-name="Keys Kopie">
    <g id="Keycaps">
      <rect class="cls-2" x="259.97" y="33.02" width="49.61" height="46.77" rx="2.61" ry="2.61"/>
      <rect class="cls-2" x="259.97" y="81.22" width="49.61" height="46.77" rx="2.61" ry="2.61"/>
      <rect class="cls-2" x="259.97" y="129.33" width="49.61" height="46.77" rx="2.61" ry="2.61"/>
      <rect class="cls-2" x="208.96" y="25.42" width="49.61" height="46.77" rx="2.61" ry="2.61"/>
      <rect class="cls-2" x="208.96" y="73.62" width="49.61" height="46.77" rx="2.61" ry="2.61"/>
      <rect class="cls-2" x="208.96" y="121.82" width="49.61" height="46.77" rx="2.61" ry="2.61"/>
      <rect class="cls-2" x="157.96" y="1.41" width="49.61" height="46.77" rx="2.61" ry="2.61"/>
      <rect class="cls-2" x="157.96" y="49.51" width="49.61" height="46.77" rx="2.61" ry="2.61"/>
      <rect class="cls-2" x="157.96" y="97.71" width="49.61" height="46.77" rx="2.61" ry="2.61"/>
      <rect class="cls-2" x="194.74" y="180.27" width="49.61" height="46.77" rx="2.61" ry="2.61"/>
      <rect class="cls-2" x="99.69" y="30.3" width="49.61" height="46.77" rx="2.61" ry="2.61" transform="translate(-3.44 8.81) rotate(-4)"/>
      <rect class="cls-2" x="103.09" y="78.41" width="49.61" height="46.77" rx="2.61" ry="2.61" transform="translate(-6.79 9.17) rotate(-4)"/>
      <rect class="cls-2" x="106.39" y="126.41" width="49.61" height="46.77" rx="2.61" ry="2.61" transform="translate(-10.13 9.52) rotate(-4)"/>
      <rect class="cls-2" x="42.36" y="74.32" width="49.61" height="46.77" rx="2.61" ry="2.61" transform="translate(-15.95 13.15) rotate(-10)"/>
      <rect class="cls-2" x="50.66" y="121.83" width="49.61" height="46.77" rx="2.61" ry="2.61" transform="translate(-24.07 15.31) rotate(-10)"/>
      <rect class="cls-2" x="59.06" y="169.23" width="49.61" height="46.77" rx="2.61" ry="2.61" transform="translate(-32.17 17.49) rotate(-10)"/>
      <rect class="cls-2" x="252.67" y="186.64" width="46.77" height="49.61" rx="2.61" ry="2.61" transform="translate(.37 423.37) rotate(-75)"/>
      <rect class="cls-2" x="304.89" y="208.37" width="46.77" height="49.61" rx="2.61" ry="2.61" transform="translate(-37.79 400.88) rotate(-60)"/>
      <rect class="cls-2" x="4.98" y="156.81" width="49.61" height="46.77" rx="2.61" ry="2.61" transform="translate(-30.84 7.91) rotate(-10)"/>
    </g>
    <g>
      <rect class="cls-2" x="265.63" y="38.69" width="38.27" height="35.43" rx=".95" ry=".95"/>
      <rect class="cls-2" x="265.63" y="86.89" width="38.27" height="35.43" rx=".95" ry=".95"/>
      <rect class="cls-2" x="265.63" y="135" width="38.27" height="35.43" rx=".95" ry=".95"/>
      <rect class="cls-2" x="214.63" y="31.09" width="38.27" height="35.43" rx=".95" ry=".95"/>
      <rect class="cls-2" x="214.63" y="79.29" width="38.27" height="35.43" rx=".95" ry=".95"/>
      <rect class="cls-2" x="214.63" y="127.49" width="38.27" height="35.43" rx=".95" ry=".95"/>
      <rect class="cls-2" x="163.63" y="7.08" width="38.27" height="35.43" rx=".95" ry=".95"/>
      <rect class="cls-2" x="163.63" y="55.18" width="38.27" height="35.43" rx=".95" ry=".95"/>
      <rect class="cls-2" x="163.63" y="103.38" width="38.27" height="35.43" rx=".95" ry=".95"/>
      <rect class="cls-2" x="200.41" y="185.94" width="38.27" height="35.43" rx=".95" ry=".95"/>
      <rect class="cls-2" x="105.36" y="35.97" width="38.27" height="35.43" rx=".95" ry=".95" transform="translate(-3.44 8.81) rotate(-4)"/>
      <rect class="cls-2" x="108.76" y="84.07" width="38.27" height="35.43" rx=".95" ry=".95" transform="translate(-6.79 9.17) rotate(-4)"/>
      <rect class="cls-2" x="112.06" y="132.08" width="38.27" height="35.43" rx=".95" ry=".95" transform="translate(-10.13 9.52) rotate(-4)"/>
      <rect class="cls-2" x="48.03" y="79.99" width="38.27" height="35.43" rx=".95" ry=".95" transform="translate(-15.95 13.15) rotate(-10)"/>
      <rect class="cls-2" x="56.33" y="127.5" width="38.27" height="35.43" rx=".95" ry=".95" transform="translate(-24.07 15.31) rotate(-10)"/>
      <rect class="cls-2" x="64.73" y="174.9" width="38.27" height="35.43" rx=".95" ry=".95" transform="translate(-32.17 17.49) rotate(-10)"/>
      <rect class="cls-2" x="258.34" y="192.31" width="35.43" height="38.27" rx=".95" ry=".95" transform="translate(.37 423.37) rotate(-75)"/>
      <rect class="cls-2" x="310.56" y="214.04" width="35.43" height="38.27" rx=".95" ry=".95" transform="translate(-37.79 400.88) rotate(-60)"/>
      <rect class="cls-2" x="10.65" y="162.48" width="38.27" height="35.43" rx=".95" ry=".95" transform="translate(-30.84 7.91) rotate(-10)"/>
    </g>
    <g id="Keycaps-2" data-name="Keycaps">
      <rect class="cls-2" x="423.36" y="33.02" width="49.61" height="46.77" rx="2.61" ry="2.61"/>
      <rect class="cls-2" x="423.36" y="81.22" width="49.61" height="46.77" rx="2.61" ry="2.61"/>
      <rect class="cls-2" x="423.36" y="129.33" width="49.61" height="46.77" rx="2.61" ry="2.61"/>
      <rect class="cls-2" x="474.36" y="25.42" width="49.61" height="46.77" rx="2.61" ry="2.61"/>
      <rect class="cls-2" x="474.36" y="73.62" width="49.61" height="46.77" rx="2.61" ry="2.61"/>
      <rect class="cls-2" x="474.36" y="121.82" width="49.61" height="46.77" rx="2.61" ry="2.61"/>
      <rect class="cls-2" x="525.36" y="1.41" width="49.61" height="46.77" rx="2.61" ry="2.61"/>
      <rect class="cls-2" x="525.36" y="49.51" width="49.61" height="46.77" rx="2.61" ry="2.61"/>
      <rect class="cls-2" x="525.36" y="97.71" width="49.61" height="46.77" rx="2.61" ry="2.61"/>
      <rect class="cls-2" x="488.59" y="180.27" width="49.61" height="46.77" rx="2.61" ry="2.61"/>
      <rect class="cls-2" x="585.05" y="28.89" width="46.77" height="49.61" rx="2.61" ry="2.61" transform="translate(512.43 656.9) rotate(-86)"/>
      <rect class="cls-2" x="581.65" y="76.99" width="46.77" height="49.61" rx="2.61" ry="2.61" transform="translate(461.29 698.25) rotate(-86)"/>
      <rect class="cls-2" x="578.35" y="124.99" width="46.77" height="49.61" rx="2.61" ry="2.61" transform="translate(410.33 739.61) rotate(-86)"/>
      <rect class="cls-2" x="642.38" y="72.9" width="46.77" height="49.61" rx="2.61" ry="2.61" transform="translate(453.94 736.4) rotate(-80)"/>
      <rect class="cls-2" x="634.08" y="120.41" width="46.77" height="49.61" rx="2.61" ry="2.61" transform="translate(400.29 767.48) rotate(-80)"/>
      <rect class="cls-2" x="625.68" y="167.81" width="46.77" height="49.61" rx="2.61" ry="2.61" transform="translate(346.67 798.38) rotate(-80)"/>
      <rect class="cls-2" x="432.07" y="188.06" width="49.61" height="46.77" rx="2.61" ry="2.61" transform="translate(-39.16 125.45) rotate(-15)"/>
      <rect class="cls-2" x="379.85" y="209.78" width="49.61" height="46.77" rx="2.61" ry="2.61" transform="translate(-62.37 233.57) rotate(-30)"/>
      <rect class="cls-2" x="679.76" y="155.39" width="46.77" height="49.61" rx="2.61" ry="2.61" transform="translate(403.59 841.37) rotate(-80)"/>
    </g>
    <g>
      <rect class="cls-2" x="429.03" y="38.69" width="38.27" height="35.43" rx=".95" ry=".95"/>
      <rect class="cls-2" x="429.03" y="86.89" width="38.27" height="35.43" rx=".95" ry=".95"/>
      <rect class="cls-2" x="429.03" y="135" width="38.27" height="35.43" rx=".95" ry=".95"/>
      <rect class="cls-2" x="480.03" y="31.09" width="38.27" height="35.43" rx=".95" ry=".95"/>
      <rect class="cls-2" x="480.03" y="79.29" width="38.27" height="35.43" rx=".95" ry=".95"/>
      <rect class="cls-2" x="480.03" y="127.49" width="38.27" height="35.43" rx=".95" ry=".95"/>
      <rect class="cls-2" x="531.03" y="7.08" width="38.27" height="35.43" rx=".95" ry=".95"/>
      <rect class="cls-2" x="531.03" y="55.18" width="38.27" height="35.43" rx=".95" ry=".95"/>
      <rect class="cls-2" x="531.03" y="103.38" width="38.27" height="35.43" rx=".95" ry=".95"/>
      <rect class="cls-2" x="494.25" y="185.94" width="38.27" height="35.43" rx=".95" ry=".95"/>
      <rect class="cls-2" x="590.72" y="34.56" width="35.43" height="38.27" rx=".95" ry=".95" transform="translate(512.44 656.9) rotate(-86)"/>
      <rect class="cls-2" x="587.32" y="82.66" width="35.43" height="38.27" rx=".95" ry=".95" transform="translate(461.29 698.25) rotate(-86)"/>
      <rect class="cls-2" x="584.02" y="130.66" width="35.43" height="38.27" rx=".95" ry=".95" transform="translate(410.33 739.61) rotate(-86)"/>
      <rect class="cls-2" x="648.05" y="78.57" width="35.43" height="38.27" rx=".95" ry=".95" transform="translate(453.93 736.39) rotate(-80)"/>
      <rect class="cls-2" x="639.75" y="126.08" width="35.43" height="38.27" rx=".95" ry=".95" transform="translate(400.29 767.47) rotate(-80)"/>
      <rect class="cls-2" x="631.35" y="173.48" width="35.43" height="38.27" rx=".95" ry=".95" transform="translate(346.67 798.37) rotate(-80)"/>
      <rect class="cls-2" x="437.73" y="193.73" width="38.27" height="35.43" rx=".95" ry=".95" transform="translate(-39.16 125.46) rotate(-15)"/>
      <rect class="cls-2" x="385.52" y="215.45" width="38.27" height="35.43" rx=".95" ry=".95" transform="translate(-62.37 233.57) rotate(-30)"/>
      <rect class="cls-2" x="685.43" y="161.06" width="35.43" height="38.27" rx=".95" ry=".95" transform="translate(403.59 841.37) rotate(-80)"/>
    </g>
  </g>
  <g id="Readme_Overlay_base">
    <rect x="265.63" y="38.69" width="38.27" height="35.43" rx=".95" ry=".95" fill="#58a6ff" fill-opacity="0.14" stroke="none"/>
    <text x="284.77" y="56.91" fill="#f0f6fc" font-family="'DejaVu Sans Mono', 'SFMono-Regular', Consolas, monospace" font-size="13.5" font-weight="700" text-anchor="middle" dominant-baseline="middle" stroke="#0d1117" stroke-width=".8" paint-order="stroke fill">W</text>
    <rect x="265.63" y="86.89" width="38.27" height="35.43" rx=".95" ry=".95" fill="#58a6ff" fill-opacity="0.14" stroke="none"/>
    <text x="284.77" y="105.11" fill="#f0f6fc" font-family="'DejaVu Sans Mono', 'SFMono-Regular', Consolas, monospace" font-size="13.5" font-weight="700" text-anchor="middle" dominant-baseline="middle" stroke="#0d1117" stroke-width=".8" paint-order="stroke fill">F</text>
    <rect x="265.63" y="135" width="38.27" height="35.43" rx=".95" ry=".95" fill="#58a6ff" fill-opacity="0.14" stroke="none"/>
    <text x="284.77" y="153.22" fill="#f0f6fc" font-family="'DejaVu Sans Mono', 'SFMono-Regular', Consolas, monospace" font-size="13.5" font-weight="700" text-anchor="middle" dominant-baseline="middle" stroke="#0d1117" stroke-width=".8" paint-order="stroke fill">V</text>
    <rect x="214.63" y="31.09" width="38.27" height="35.43" rx=".95" ry=".95" fill="#58a6ff" fill-opacity="0.14" stroke="none"/>
    <text x="233.77" y="49.31" fill="#f0f6fc" font-family="'DejaVu Sans Mono', 'SFMono-Regular', Consolas, monospace" font-size="13.5" font-weight="700" text-anchor="middle" dominant-baseline="middle" stroke="#0d1117" stroke-width=".8" paint-order="stroke fill">P</text>
    <rect x="214.63" y="79.29" width="38.27" height="35.43" rx=".95" ry=".95" fill="#58a6ff" fill-opacity="0.14" stroke="none"/>
    <text x="233.77" y="92.26" fill="#f0f6fc" font-family="'DejaVu Sans Mono', 'SFMono-Regular', Consolas, monospace" font-size="11" font-weight="700" text-anchor="middle" dominant-baseline="middle" stroke="#0d1117" stroke-width=".8" paint-order="stroke fill">N</text>
    <text x="233.77" y="102.76" fill="#58a6ff" font-family="'DejaVu Sans Mono', 'SFMono-Regular', Consolas, monospace" font-size="7" font-weight="700" text-anchor="middle" dominant-baseline="middle" stroke="#0d1117" stroke-width=".8" paint-order="stroke fill">CTL</text>
    <rect x="214.63" y="127.49" width="38.27" height="35.43" rx=".95" ry=".95" fill="#58a6ff" fill-opacity="0.14" stroke="none"/>
    <text x="233.77" y="145.71" fill="#f0f6fc" font-family="'DejaVu Sans Mono', 'SFMono-Regular', Consolas, monospace" font-size="13.5" font-weight="700" text-anchor="middle" dominant-baseline="middle" stroke="#0d1117" stroke-width=".8" paint-order="stroke fill">-</text>
    <rect x="163.63" y="7.08" width="38.27" height="35.43" rx=".95" ry=".95" fill="#58a6ff" fill-opacity="0.14" stroke="none"/>
    <text x="182.77" y="25.3" fill="#f0f6fc" font-family="'DejaVu Sans Mono', 'SFMono-Regular', Consolas, monospace" font-size="13.5" font-weight="700" text-anchor="middle" dominant-baseline="middle" stroke="#0d1117" stroke-width=".8" paint-order="stroke fill">O</text>
    <rect x="163.63" y="55.18" width="38.27" height="35.43" rx=".95" ry=".95" fill="#58a6ff" fill-opacity="0.14" stroke="none"/>
    <text x="182.77" y="68.15" fill="#f0f6fc" font-family="'DejaVu Sans Mono', 'SFMono-Regular', Consolas, monospace" font-size="11" font-weight="700" text-anchor="middle" dominant-baseline="middle" stroke="#0d1117" stroke-width=".8" paint-order="stroke fill">E</text>
    <text x="182.77" y="78.65" fill="#58a6ff" font-family="'DejaVu Sans Mono', 'SFMono-Regular', Consolas, monospace" font-size="7" font-weight="700" text-anchor="middle" dominant-baseline="middle" stroke="#0d1117" stroke-width=".8" paint-order="stroke fill">SFT</text>
    <rect x="163.63" y="103.38" width="38.27" height="35.43" rx=".95" ry=".95" fill="#58a6ff" fill-opacity="0.14" stroke="none"/>
    <text x="182.77" y="121.6" fill="#f0f6fc" font-family="'DejaVu Sans Mono', 'SFMono-Regular', Consolas, monospace" font-size="13.5" font-weight="700" text-anchor="middle" dominant-baseline="middle" stroke="#0d1117" stroke-width=".8" paint-order="stroke fill">X</text>
    <rect x="200.41" y="185.94" width="38.27" height="35.43" rx=".95" ry=".95" fill="#58a6ff" fill-opacity="0.14" stroke="none"/>
    <text x="219.55" y="204.16" fill="#f0f6fc" font-family="'DejaVu Sans Mono', 'SFMono-Regular', Consolas, monospace" font-size="11" font-weight="700" text-anchor="middle" dominant-baseline="middle" stroke="#0d1117" stroke-width=".8" paint-order="stroke fill">TAB</text>
    <rect x="105.36" y="35.97" width="38.27" height="35.43" rx=".95" ry=".95" transform="translate(-3.44 8.81) rotate(-4)" fill="#58a6ff" fill-opacity="0.14" stroke="none"/>
    <text x="124.5" y="54.19" fill="#f0f6fc" font-family="'DejaVu Sans Mono', 'SFMono-Regular', Consolas, monospace" font-size="13.5" font-weight="700" text-anchor="middle" dominant-baseline="middle" stroke="#0d1117" stroke-width=".8" paint-order="stroke fill">C</text>
    <rect x="108.76" y="84.07" width="38.27" height="35.43" rx=".95" ry=".95" transform="translate(-6.79 9.17) rotate(-4)" fill="#58a6ff" fill-opacity="0.14" stroke="none"/>
    <text x="127.9" y="97.04" fill="#f0f6fc" font-family="'DejaVu Sans Mono', 'SFMono-Regular', Consolas, monospace" font-size="11" font-weight="700" text-anchor="middle" dominant-baseline="middle" stroke="#0d1117" stroke-width=".8" paint-order="stroke fill">S</text>
    <text x="127.9" y="107.54" fill="#58a6ff" font-family="'DejaVu Sans Mono', 'SFMono-Regular', Consolas, monospace" font-size="7" font-weight="700" text-anchor="middle" dominant-baseline="middle" stroke="#0d1117" stroke-width=".8" paint-order="stroke fill">ALT</text>
    <rect x="112.06" y="132.08" width="38.27" height="35.43" rx=".95" ry=".95" transform="translate(-10.13 9.52) rotate(-4)" fill="#58a6ff" fill-opacity="0.14" stroke="none"/>
    <text x="131.2" y="150.3" fill="#f0f6fc" font-family="'DejaVu Sans Mono', 'SFMono-Regular', Consolas, monospace" font-size="13.5" font-weight="700" text-anchor="middle" dominant-baseline="middle" stroke="#0d1117" stroke-width=".8" paint-order="stroke fill">Z</text>
    <rect x="48.03" y="79.99" width="38.27" height="35.43" rx=".95" ry=".95" transform="translate(-15.95 13.15) rotate(-10)" fill="#58a6ff" fill-opacity="0.14" stroke="none"/>
    <text x="67.17" y="98.21" fill="#f0f6fc" font-family="'DejaVu Sans Mono', 'SFMono-Regular', Consolas, monospace" font-size="13.5" font-weight="700" text-anchor="middle" dominant-baseline="middle" stroke="#0d1117" stroke-width=".8" paint-order="stroke fill">Q</text>
    <rect x="56.33" y="127.5" width="38.27" height="35.43" rx=".95" ry=".95" transform="translate(-24.07 15.31) rotate(-10)" fill="#58a6ff" fill-opacity="0.14" stroke="none"/>
    <text x="75.47" y="140.47" fill="#f0f6fc" font-family="'DejaVu Sans Mono', 'SFMono-Regular', Consolas, monospace" font-size="11" font-weight="700" text-anchor="middle" dominant-baseline="middle" stroke="#0d1117" stroke-width=".8" paint-order="stroke fill">A</text>
    <text x="75.47" y="150.97" fill="#58a6ff" font-family="'DejaVu Sans Mono', 'SFMono-Regular', Consolas, monospace" font-size="7" font-weight="700" text-anchor="middle" dominant-baseline="middle" stroke="#0d1117" stroke-width=".8" paint-order="stroke fill">GUI</text>
    <rect x="64.73" y="174.9" width="38.27" height="35.43" rx=".95" ry=".95" transform="translate(-32.17 17.49) rotate(-10)" fill="#58a6ff" fill-opacity="0.14" stroke="none"/>
    <text x="83.87" y="193.12" fill="#f0f6fc" font-family="'DejaVu Sans Mono', 'SFMono-Regular', Consolas, monospace" font-size="11" font-weight="700" text-anchor="middle" dominant-baseline="middle" stroke="#0d1117" stroke-width=".8" paint-order="stroke fill">ESC</text>
    <rect x="258.34" y="192.31" width="35.43" height="38.27" rx=".95" ry=".95" transform="translate(.37 423.37) rotate(-75)" fill="#58a6ff" fill-opacity="0.14" stroke="none"/>
    <text x="276.06" y="206.7" fill="#f0f6fc" font-family="'DejaVu Sans Mono', 'SFMono-Regular', Consolas, monospace" font-size="11" font-weight="700" text-anchor="middle" dominant-baseline="middle" stroke="#0d1117" stroke-width=".8" paint-order="stroke fill">BSPC</text>
    <text x="276.06" y="217.2" fill="#58a6ff" font-family="'DejaVu Sans Mono', 'SFMono-Regular', Consolas, monospace" font-size="7" font-weight="700" text-anchor="middle" dominant-baseline="middle" stroke="#0d1117" stroke-width=".8" paint-order="stroke fill">NAV</text>
    <rect x="310.56" y="214.04" width="35.43" height="38.27" rx=".95" ry=".95" transform="translate(-37.79 400.88) rotate(-60)" fill="#58a6ff" fill-opacity="0.14" stroke="none"/>
    <text x="328.28" y="233.68" fill="#f0f6fc" font-family="'DejaVu Sans Mono', 'SFMono-Regular', Consolas, monospace" font-size="9.2" font-weight="700" text-anchor="middle" dominant-baseline="middle" stroke="#0d1117" stroke-width=".8" paint-order="stroke fill">SPACE</text>
    <rect x="10.65" y="162.48" width="38.27" height="35.43" rx=".95" ry=".95" transform="translate(-30.84 7.91) rotate(-10)" fill="#58a6ff" fill-opacity="0.14" stroke="none"/>
    <text x="29.79" y="180.7" fill="#58a6ff" font-family="'DejaVu Sans Mono', 'SFMono-Regular', Consolas, monospace" font-size="11" font-weight="700" text-anchor="middle" dominant-baseline="middle" stroke="#0d1117" stroke-width=".8" paint-order="stroke fill">SYS</text>
    <rect x="429.03" y="38.69" width="38.27" height="35.43" rx=".95" ry=".95" fill="#58a6ff" fill-opacity="0.14" stroke="none"/>
    <text x="448.17" y="56.91" fill="#f0f6fc" font-family="'DejaVu Sans Mono', 'SFMono-Regular', Consolas, monospace" font-size="13.5" font-weight="700" text-anchor="middle" dominant-baseline="middle" stroke="#0d1117" stroke-width=".8" paint-order="stroke fill">J</text>
    <rect x="429.03" y="86.89" width="38.27" height="35.43" rx=".95" ry=".95" fill="#58a6ff" fill-opacity="0.14" stroke="none"/>
    <text x="448.17" y="105.11" fill="#f0f6fc" font-family="'DejaVu Sans Mono', 'SFMono-Regular', Consolas, monospace" font-size="13.5" font-weight="700" text-anchor="middle" dominant-baseline="middle" stroke="#0d1117" stroke-width=".8" paint-order="stroke fill">L</text>
    <rect x="429.03" y="135" width="38.27" height="35.43" rx=".95" ry=".95" fill="#58a6ff" fill-opacity="0.14" stroke="none"/>
    <text x="448.17" y="153.22" fill="#f0f6fc" font-family="'DejaVu Sans Mono', 'SFMono-Regular', Consolas, monospace" font-size="13.5" font-weight="700" text-anchor="middle" dominant-baseline="middle" stroke="#0d1117" stroke-width=".8" paint-order="stroke fill">B</text>
    <rect x="480.03" y="31.09" width="38.27" height="35.43" rx=".95" ry=".95" fill="#58a6ff" fill-opacity="0.14" stroke="none"/>
    <text x="499.17" y="49.31" fill="#f0f6fc" font-family="'DejaVu Sans Mono', 'SFMono-Regular', Consolas, monospace" font-size="13.5" font-weight="700" text-anchor="middle" dominant-baseline="middle" stroke="#0d1117" stroke-width=".8" paint-order="stroke fill">M</text>
    <rect x="480.03" y="79.29" width="38.27" height="35.43" rx=".95" ry=".95" fill="#58a6ff" fill-opacity="0.14" stroke="none"/>
    <text x="499.17" y="92.26" fill="#f0f6fc" font-family="'DejaVu Sans Mono', 'SFMono-Regular', Consolas, monospace" font-size="11" font-weight="700" text-anchor="middle" dominant-baseline="middle" stroke="#0d1117" stroke-width=".8" paint-order="stroke fill">R</text>
    <text x="499.17" y="102.76" fill="#58a6ff" font-family="'DejaVu Sans Mono', 'SFMono-Regular', Consolas, monospace" font-size="7" font-weight="700" text-anchor="middle" dominant-baseline="middle" stroke="#0d1117" stroke-width=".8" paint-order="stroke fill">CTL</text>
    <rect x="480.03" y="127.49" width="38.27" height="35.43" rx=".95" ry=".95" fill="#58a6ff" fill-opacity="0.14" stroke="none"/>
    <text x="499.17" y="145.71" fill="#f0f6fc" font-family="'DejaVu Sans Mono', 'SFMono-Regular', Consolas, monospace" font-size="13.5" font-weight="700" text-anchor="middle" dominant-baseline="middle" stroke="#0d1117" stroke-width=".8" paint-order="stroke fill">H</text>
    <rect x="531.03" y="7.08" width="38.27" height="35.43" rx=".95" ry=".95" fill="#58a6ff" fill-opacity="0.14" stroke="none"/>
    <text x="550.17" y="25.3" fill="#f0f6fc" font-family="'DejaVu Sans Mono', 'SFMono-Regular', Consolas, monospace" font-size="13.5" font-weight="700" text-anchor="middle" dominant-baseline="middle" stroke="#0d1117" stroke-width=".8" paint-order="stroke fill">D</text>
    <rect x="531.03" y="55.18" width="38.27" height="35.43" rx=".95" ry=".95" fill="#58a6ff" fill-opacity="0.14" stroke="none"/>
    <text x="550.17" y="68.15" fill="#f0f6fc" font-family="'DejaVu Sans Mono', 'SFMono-Regular', Consolas, monospace" font-size="11" font-weight="700" text-anchor="middle" dominant-baseline="middle" stroke="#0d1117" stroke-width=".8" paint-order="stroke fill">T</text>
    <text x="550.17" y="78.65" fill="#58a6ff" font-family="'DejaVu Sans Mono', 'SFMono-Regular', Consolas, monospace" font-size="7" font-weight="700" text-anchor="middle" dominant-baseline="middle" stroke="#0d1117" stroke-width=".8" paint-order="stroke fill">SFT</text>
    <rect x="531.03" y="103.38" width="38.27" height="35.43" rx=".95" ry=".95" fill="#58a6ff" fill-opacity="0.14" stroke="none"/>
    <text x="550.17" y="121.6" fill="#f0f6fc" font-family="'DejaVu Sans Mono', 'SFMono-Regular', Consolas, monospace" font-size="13.5" font-weight="700" text-anchor="middle" dominant-baseline="middle" stroke="#0d1117" stroke-width=".8" paint-order="stroke fill">G</text>
    <rect x="494.25" y="185.94" width="38.27" height="35.43" rx=".95" ry=".95" fill="#58a6ff" fill-opacity="0.14" stroke="none"/>
    <text x="513.39" y="204.16" fill="#58a6ff" font-family="'DejaVu Sans Mono', 'SFMono-Regular', Consolas, monospace" font-size="11" font-weight="700" text-anchor="middle" dominant-baseline="middle" stroke="#0d1117" stroke-width=".8" paint-order="stroke fill">RAlt</text>
    <rect x="590.72" y="34.56" width="35.43" height="38.27" rx=".95" ry=".95" transform="translate(512.44 656.9) rotate(-86)" fill="#58a6ff" fill-opacity="0.14" stroke="none"/>
    <text x="608.44" y="54.2" fill="#f0f6fc" font-family="'DejaVu Sans Mono', 'SFMono-Regular', Consolas, monospace" font-size="13.5" font-weight="700" text-anchor="middle" dominant-baseline="middle" stroke="#0d1117" stroke-width=".8" paint-order="stroke fill">&apos;</text>
    <rect x="587.32" y="82.66" width="35.43" height="38.27" rx=".95" ry=".95" transform="translate(461.29 698.25) rotate(-86)" fill="#58a6ff" fill-opacity="0.14" stroke="none"/>
    <text x="605.04" y="97.05" fill="#f0f6fc" font-family="'DejaVu Sans Mono', 'SFMono-Regular', Consolas, monospace" font-size="11" font-weight="700" text-anchor="middle" dominant-baseline="middle" stroke="#0d1117" stroke-width=".8" paint-order="stroke fill">I</text>
    <text x="605.04" y="107.55" fill="#58a6ff" font-family="'DejaVu Sans Mono', 'SFMono-Regular', Consolas, monospace" font-size="7" font-weight="700" text-anchor="middle" dominant-baseline="middle" stroke="#0d1117" stroke-width=".8" paint-order="stroke fill">ALT</text>
    <rect x="584.02" y="130.66" width="35.43" height="38.27" rx=".95" ry=".95" transform="translate(410.33 739.61) rotate(-86)" fill="#58a6ff" fill-opacity="0.14" stroke="none"/>
    <text x="601.74" y="150.3" fill="#f0f6fc" font-family="'DejaVu Sans Mono', 'SFMono-Regular', Consolas, monospace" font-size="13.5" font-weight="700" text-anchor="middle" dominant-baseline="middle" stroke="#0d1117" stroke-width=".8" paint-order="stroke fill">,</text>
    <rect x="648.05" y="78.57" width="35.43" height="38.27" rx=".95" ry=".95" transform="translate(453.93 736.39) rotate(-80)" fill="#58a6ff" fill-opacity="0.14" stroke="none"/>
    <text x="665.77" y="98.21" fill="#f0f6fc" font-family="'DejaVu Sans Mono', 'SFMono-Regular', Consolas, monospace" font-size="13.5" font-weight="700" text-anchor="middle" dominant-baseline="middle" stroke="#0d1117" stroke-width=".8" paint-order="stroke fill">Y</text>
    <rect x="639.75" y="126.08" width="35.43" height="38.27" rx=".95" ry=".95" transform="translate(400.29 767.47) rotate(-80)" fill="#58a6ff" fill-opacity="0.14" stroke="none"/>
    <text x="657.47" y="140.47" fill="#f0f6fc" font-family="'DejaVu Sans Mono', 'SFMono-Regular', Consolas, monospace" font-size="11" font-weight="700" text-anchor="middle" dominant-baseline="middle" stroke="#0d1117" stroke-width=".8" paint-order="stroke fill">U</text>
    <text x="657.47" y="150.97" fill="#58a6ff" font-family="'DejaVu Sans Mono', 'SFMono-Regular', Consolas, monospace" font-size="7" font-weight="700" text-anchor="middle" dominant-baseline="middle" stroke="#0d1117" stroke-width=".8" paint-order="stroke fill">GUI</text>
    <rect x="631.35" y="173.48" width="35.43" height="38.27" rx=".95" ry=".95" transform="translate(346.67 798.37) rotate(-80)" fill="#58a6ff" fill-opacity="0.14" stroke="none"/>
    <text x="649.07" y="193.12" fill="#f0f6fc" font-family="'DejaVu Sans Mono', 'SFMono-Regular', Consolas, monospace" font-size="13.5" font-weight="700" text-anchor="middle" dominant-baseline="middle" stroke="#0d1117" stroke-width=".8" paint-order="stroke fill">.</text>
    <rect x="437.73" y="193.73" width="38.27" height="35.43" rx=".95" ry=".95" transform="translate(-39.16 125.46) rotate(-15)" fill="#58a6ff" fill-opacity="0.14" stroke="none"/>
    <text x="456.87" y="206.7" fill="#f0f6fc" font-family="'DejaVu Sans Mono', 'SFMono-Regular', Consolas, monospace" font-size="11" font-weight="700" text-anchor="middle" dominant-baseline="middle" stroke="#0d1117" stroke-width=".8" paint-order="stroke fill">DEL</text>
    <text x="456.87" y="217.2" fill="#58a6ff" font-family="'DejaVu Sans Mono', 'SFMono-Regular', Consolas, monospace" font-size="7" font-weight="700" text-anchor="middle" dominant-baseline="middle" stroke="#0d1117" stroke-width=".8" paint-order="stroke fill">SYM</text>
    <rect x="385.52" y="215.45" width="38.27" height="35.43" rx=".95" ry=".95" transform="translate(-62.37 233.57) rotate(-30)" fill="#58a6ff" fill-opacity="0.14" stroke="none"/>
    <text x="404.66" y="233.67" fill="#f0f6fc" font-family="'DejaVu Sans Mono', 'SFMono-Regular', Consolas, monospace" font-size="9.2" font-weight="700" text-anchor="middle" dominant-baseline="middle" stroke="#0d1117" stroke-width=".8" paint-order="stroke fill">ENTER</text>
    <rect x="685.43" y="161.06" width="35.43" height="38.27" rx=".95" ry=".95" transform="translate(403.59 841.37) rotate(-80)" fill="#58a6ff" fill-opacity="0.14" stroke="none"/>
    <text x="703.15" y="180.7" fill="#f0f6fc" font-family="'DejaVu Sans Mono', 'SFMono-Regular', Consolas, monospace" font-size="13.5" font-weight="700" text-anchor="middle" dominant-baseline="middle" stroke="#0d1117" stroke-width=".8" paint-order="stroke fill">K</text>
  </g>
  <g id="Readme_Legend">
    <rect x="250.5" y="237.2" width="231.8" height="19.2" rx="9.6" ry="9.6" fill="#0d1117" fill-opacity=".82" stroke="#58a6ff" stroke-opacity=".28" stroke-width=".6"/>
    <text x="272.5" y="246.8" fill="#f0f6fc" font-family="'DejaVu Sans Mono', 'SFMono-Regular', Consolas, monospace" font-size="9" font-weight="700">tap</text>
    <text x="297.8" y="246.8" fill="#8b949e" font-family="'DejaVu Sans Mono', 'SFMono-Regular', Consolas, monospace" font-size="9">= label principal</text>
    <text x="385.9" y="246.8" fill="#58a6ff" font-family="'DejaVu Sans Mono', 'SFMono-Regular', Consolas, monospace" font-size="9" font-weight="700">hold</text>
    <text x="417.5" y="246.8" fill="#8b949e" font-family="'DejaVu Sans Mono', 'SFMono-Regular', Consolas, monospace" font-size="9">= action maintenue</text>
  </g></svg>
